<svg width="80" height="9" viewBox="0 0 158 9" fill="none" xmlns="http://www.w3.org/2000/svg">
<line x1="31" y1="4.84399" y2="4.84399" stroke="white" stroke-opacity="0.1"/>
<path d="M68.4298 8.56641H66.8302L64.674 5.05664L62.506 8.56641H61.0002L63.8478 4.125L61.1935 0H62.7463L68.4298 8.56641Z" fill="#ffffff"/>
<path fill-rule="evenodd" clip-rule="evenodd" d="M65.8037 1.5H67.2648L68.2247 0H66.7189L65.8037 1.5Z" fill="#ffffff"/>
<path d="M41.3945 8.56641H40V0H44.8398V1.18359H41.3945V3.85547H44.6172V5.0332H41.3945V8.56641Z" fill="#ffffff"/>
<path d="M46.5484 8.56641V0H47.9547V7.37109H51.5934V8.56641H46.5484Z" fill="#ffffff"/>
<path d="M59.9523 0V5.54297C59.9523 6.14062 59.8254 6.67578 59.5715 7.14844C59.3215 7.62109 58.9426 7.99609 58.4348 8.27344C57.927 8.54688 57.2883 8.68359 56.5187 8.68359C55.4211 8.68359 54.5852 8.39648 54.0109 7.82227C53.4406 7.24414 53.1555 6.47656 53.1555 5.51953V0H54.5617V5.39648C54.5617 6.11133 54.7297 6.63867 55.0656 6.97852C55.4016 7.31836 55.9035 7.48828 56.5715 7.48828C57.0324 7.48828 57.4074 7.4082 57.6965 7.24805C57.9895 7.08398 58.2043 6.8457 58.341 6.5332C58.4816 6.2168 58.552 5.83594 58.552 5.39062V0H59.9523Z" fill="#ffffff"/>
<path d="M70.204 8.556C70.068 8.556 70 8.476 70 8.316V0.384C70 0.224 70.08 0.144 70.24 0.144H73.564C74.364 0.144 74.956 0.328 75.34 0.696C75.724 1.064 75.916 1.572 75.916 2.22C75.916 2.876 75.724 3.388 75.34 3.756C74.956 4.124 74.364 4.308 73.564 4.308H70.408V8.316C70.408 8.476 70.34 8.556 70.204 8.556ZM70.408 3.888H73.564C74.228 3.888 74.716 3.752 75.028 3.48C75.34 3.208 75.496 2.788 75.496 2.22C75.496 1.652 75.34 1.236 75.028 0.972C74.716 0.700001 74.228 0.564001 73.564 0.564001H70.408V3.888Z" fill="#ffffff"/>
<path d="M77.8774 8.556C77.7414 8.556 77.6734 8.476 77.6734 8.316V0.384C77.6734 0.224 77.7534 0.144 77.9134 0.144H81.2374C82.0374 0.144 82.6294 0.328 83.0134 0.696C83.3974 1.064 83.5894 1.572 83.5894 2.22C83.5894 2.868 83.4014 3.376 83.0254 3.744C82.6574 4.104 82.0814 4.292 81.2974 4.308L83.4694 8.268C83.5094 8.348 83.5214 8.416 83.5054 8.472C83.4894 8.528 83.4494 8.556 83.3854 8.556H83.3374C83.2014 8.556 83.1054 8.5 83.0494 8.388L80.8054 4.308H78.0814V8.316C78.0814 8.476 78.0134 8.556 77.8774 8.556ZM78.0814 3.888H81.2374C81.9014 3.888 82.3894 3.752 82.7014 3.48C83.0134 3.208 83.1694 2.788 83.1694 2.22C83.1694 1.652 83.0134 1.236 82.7014 0.972C82.3894 0.700001 81.9014 0.564001 81.2374 0.564001H78.0814V3.888Z" fill="#ffffff"/>
<path d="M88.8232 8.688C88.0712 8.688 87.4112 8.508 86.8432 8.148C86.2752 7.788 85.8312 7.284 85.5112 6.636C85.1992 5.98 85.0432 5.216 85.0432 4.344C85.0432 3.472 85.1992 2.712 85.5112 2.064C85.8312 1.416 86.2752 0.912 86.8432 0.552C87.4112 0.184 88.0712 0 88.8232 0C89.5752 0 90.2352 0.184 90.8032 0.552C91.3712 0.912 91.8112 1.416 92.1232 2.064C92.4432 2.712 92.6032 3.472 92.6032 4.344C92.6032 5.216 92.4432 5.98 92.1232 6.636C91.8112 7.284 91.3712 7.788 90.8032 8.148C90.2352 8.508 89.5752 8.688 88.8232 8.688ZM88.8232 8.28C89.4712 8.28 90.0472 8.124 90.5512 7.812C91.0632 7.5 91.4632 7.052 91.7512 6.468C92.0392 5.876 92.1832 5.168 92.1832 4.344C92.1832 3.52 92.0392 2.816 91.7512 2.232C91.4632 1.648 91.0632 1.2 90.5512 0.888C90.0472 0.576 89.4712 0.42 88.8232 0.42C88.1752 0.42 87.5952 0.576 87.0832 0.888C86.5792 1.2 86.1792 1.648 85.8832 2.232C85.5952 2.816 85.4512 3.52 85.4512 4.344C85.4512 5.168 85.5952 5.876 85.8832 6.468C86.1792 7.052 86.5792 7.5 87.0832 7.812C87.5952 8.124 88.1752 8.28 88.8232 8.28Z" fill="#ffffff"/>
<path d="M94.6774 8.556C94.5414 8.556 94.4734 8.476 94.4734 8.316V0.396001C94.4734 0.236 94.5494 0.156 94.7014 0.156C94.8214 0.156 94.9174 0.208 94.9894 0.312L98.0014 4.632L101.001 0.312C101.073 0.208 101.173 0.156 101.301 0.156C101.461 0.156 101.541 0.236 101.541 0.396001V8.316C101.541 8.476 101.469 8.556 101.325 8.556C101.181 8.556 101.109 8.476 101.109 8.316V0.876L98.2174 5.076C98.1454 5.18 98.0774 5.232 98.0134 5.232C97.9414 5.232 97.8694 5.18 97.7974 5.076L94.8814 0.876V8.316C94.8814 8.476 94.8134 8.556 94.6774 8.556Z" fill="#ffffff"/>
<path d="M104.085 8.556C103.949 8.556 103.881 8.476 103.881 8.316V0.384C103.881 0.224 103.961 0.144 104.121 0.144H107.445C108.245 0.144 108.837 0.328 109.221 0.696C109.605 1.064 109.797 1.572 109.797 2.22C109.797 2.876 109.605 3.388 109.221 3.756C108.837 4.124 108.245 4.308 107.445 4.308H104.289V8.316C104.289 8.476 104.221 8.556 104.085 8.556ZM104.289 3.888H107.445C108.109 3.888 108.597 3.752 108.909 3.48C109.221 3.208 109.377 2.788 109.377 2.22C109.377 1.652 109.221 1.236 108.909 0.972C108.597 0.700001 108.109 0.564001 107.445 0.564001H104.289V3.888Z" fill="#ffffff"/>
<path d="M114.075 8.556C113.931 8.556 113.859 8.476 113.859 8.316V0.564001H111.219C111.059 0.564001 110.979 0.496001 110.979 0.36C110.979 0.224 111.059 0.156 111.219 0.156H116.919C117.079 0.156 117.159 0.224 117.159 0.36C117.159 0.496001 117.079 0.564001 116.919 0.564001H114.279V8.316C114.279 8.476 114.211 8.556 114.075 8.556Z" fill="#ffffff"/>
<line x1="157.159" y1="4.84399" x2="126.159" y2="4.84399" stroke="white" stroke-opacity="0.1"/>
</svg>
